<svg width="102" height="102" viewBox="0 0 102 102" fill="none" xmlns="http://www.w3.org/2000/svg">
<path d="M51 0C22.8787 0 0 22.8787 0 51.0001C0 79.1216 22.8785 102 51 102C79.1215 102 102 79.1213 102 51.0001C102 22.8789 79.1215 0 51 0ZM96.8163 71.3692C95.387 71.1673 93.9411 71.0599 92.5113 71.0599C86.8146 71.0599 81.2903 72.628 76.5045 75.5993C77.6639 73.0762 78.3034 69.1637 75.4438 64.2226L75.3613 64.0803L75.2395 64.1911C75.1752 64.2497 68.8616 70.1306 71.771 79.1734V79.2271C71.4772 79.5011 71.2287 79.7399 70.9962 79.9722C68.6524 82.3162 66.7256 84.9865 65.2635 87.9154L65.2606 87.9057C64.7641 83.1972 63.4678 78.6877 61.4081 74.4898V74.3282C64.2145 71.4212 66.0483 67.7593 66.8563 63.4358C69.3725 60.983 72.1768 58.8394 75.1915 57.0643C78.0401 55.3869 81.0931 54.0348 84.2658 53.0459C85.185 52.759 86.1249 52.4997 87.0598 52.2754C90.1807 51.5259 93.3904 51.121 96.6006 51.0722C97.638 51.9402 99.2289 53.0704 101.069 53.7307C100.732 59.9802 99.2445 65.9287 96.8163 71.3692ZM100.948 46.5853C99.8892 46.8378 98.8376 47.2899 97.8189 47.9501C93.3225 47.8981 88.8277 48.4954 84.4981 49.7234L84.4423 49.4327C84.4941 48.5157 84.292 47.3193 83.3085 46.1144C81.0458 43.3422 75.7432 41.7915 67.5484 41.5055L67.347 41.4982L67.42 41.686C67.4296 41.7109 68.4018 44.1777 70.4316 46.6049C72.2206 48.7437 75.2028 51.2694 79.4134 51.4872C77.4116 52.3148 75.4617 53.2852 73.6088 54.3761C69.9275 56.5437 66.5541 59.2126 63.5813 62.3092C61.6086 62.9782 58.813 64.3206 56.5582 66.9374C56.198 66.4974 55.8261 66.0625 55.4509 65.6428C54.7611 64.8713 54.0354 64.1213 53.2936 63.4135C52.7502 62.0567 52.0612 60.7792 51.2459 59.6158C48.6444 55.9044 43.5668 51.7553 34.1584 53.0615L33.9954 53.0841L34.0519 53.2389C34.0931 53.3512 38.3155 64.4763 51.2942 65.8187C52.4543 66.9395 53.5417 68.1458 54.5374 69.4063V69.9959C53.2081 72.6487 52.5556 75.8308 52.6131 79.4751L52.6157 79.6407L52.7768 79.6021C52.8065 79.5953 55.7366 78.8761 58.9223 76.5135C59.726 78.238 60.3893 80.0409 60.9174 81.8818V82.7628C52.4063 84.5566 44.6002 89.1728 38.9037 95.7971C38.3694 96.4185 37.8505 97.0693 37.3478 97.7329L37.226 95.7391C37.2286 95.6202 37.2315 95.5015 37.2333 95.3818L37.2355 95.2657C37.238 95.057 37.2395 94.8476 37.2395 94.6384C37.2395 88.3358 36.0047 82.221 33.5697 76.4633C32.578 74.1191 31.3882 71.8438 30.0328 69.7005C30.0526 69.5731 30.0566 69.4459 30.0448 69.3205C30.0272 69.1314 30.0142 68.9408 29.9987 68.7512V60.1958C30.4446 54.7492 31.7399 49.4582 33.8719 44.4175C34.6431 42.5936 35.5284 40.8003 36.5029 39.0798L36.6666 39.1382C38.0656 41.4351 42.1277 43.9348 53.28 43.7146L53.4814 43.7108L53.3982 43.5273C53.3513 43.4239 48.6616 33.3126 39.4339 34.4907C41.0708 32.2069 42.9164 30.0337 44.9226 28.0272C49.6587 23.2914 55.1729 19.5733 61.3127 16.9763C63.13 16.2079 65.0076 15.5385 66.8982 14.9854C64.2991 22.3004 69.6114 27.1272 73.0378 29.3652L73.1487 29.4377L73.2215 29.327C73.2872 29.2276 79.6247 19.4139 72.3314 13.7146C75.2951 13.1909 78.3385 12.9255 81.3831 12.9255C82.1227 12.9255 82.886 12.9424 83.652 12.9749C93.3061 21.2769 99.7728 33.1833 100.948 46.5853ZM6.5214 40.0875L6.4055 40.0274L6.34355 40.1424C6.33531 40.1582 5.49131 41.735 4.99169 43.8083C4.36629 46.4051 4.54437 48.6723 5.50473 50.394C4.78675 50.1514 4.06242 49.9253 3.3468 49.7218C2.93316 49.2874 2.10564 48.5044 0.96107 47.7991C1.20888 43.8868 1.90636 40.0953 3.00382 36.4752C6.63847 36.6606 11.2825 35.7264 13.3848 30.4353C14.9777 32.2427 16.4515 34.1715 17.7676 36.1711C19.0088 38.0575 20.1373 40.0489 21.1212 42.089C21.4922 42.8583 21.8465 43.6418 22.1746 44.418C24.3436 49.5458 25.6486 54.9323 26.0724 60.4787V64.3418C25.2725 63.4064 24.4332 62.4927 23.564 61.6233C19.9849 58.0444 15.8952 55.0941 11.4061 52.8528C12.5752 50.2614 14.2691 44.096 6.5214 40.0875ZM0.904539 53.139C1.18886 52.9498 1.46799 52.7447 1.73323 52.5133C3.69636 53.0339 5.63876 53.6991 7.50791 54.4897C8.28643 54.819 9.06918 55.1779 9.83828 55.5574C6.96896 56.7908 4.24191 58.3752 1.71721 60.2646C1.28143 57.941 1.00677 55.5621 0.904539 53.139ZM8.03156 25.177C8.27112 25.3807 8.50244 25.5798 8.7241 25.7748C8.37924 25.7492 8.03697 25.7402 7.69777 25.7412C7.80824 25.5525 7.91873 25.364 8.03156 25.177ZM25.0473 43.2025C24.693 42.3656 24.31 41.5199 23.9086 40.6889C22.5897 37.9604 21.035 35.3292 19.2872 32.8679C17.647 30.5583 15.7927 28.3415 13.7817 26.2843C13.7429 26.2394 13.7017 26.1981 13.6633 26.1626L13.5363 26.0325C13.4677 25.9621 13.3992 25.8919 13.3297 25.8219C12.2254 24.7174 11.0161 23.6157 9.73651 22.5439C9.81472 22.4311 9.89222 22.3178 9.97113 22.2057C10.0041 22.2205 10.0371 22.2356 10.0703 22.2497C14.6698 24.1952 19.5456 25.2458 24.5625 25.3718C26.5569 25.4241 28.5745 25.3254 30.5395 25.0837C30.9487 26.6678 31.462 28.2418 32.065 29.7649C32.8525 31.7528 33.8086 33.6891 34.9063 35.5238V35.6593C33.419 38.0542 32.1041 40.5909 30.9993 43.2025C29.7323 46.1981 28.7323 49.3135 28.0233 52.4721C27.3143 49.3133 26.3141 46.1976 25.0473 43.2025ZM63.0243 2.3167L63.0502 2.41893C63.0782 2.52776 63.1069 2.63682 63.1361 2.74517L63.2012 2.98097C63.232 3.09239 63.2636 3.20404 63.2958 3.31546L63.3618 3.53759C63.3962 3.65207 63.4306 3.76655 63.4664 3.88103L63.5323 4.08809C63.5703 4.20634 63.6084 4.32482 63.648 4.4426L63.7111 4.62822C63.7535 4.75259 63.7962 4.87649 63.8405 5.00087L63.8972 5.15657C63.9453 5.28942 63.9936 5.42204 64.0433 5.55372L64.0871 5.66702C64.1431 5.81283 64.1992 5.95864 64.2699 6.13366C64.6918 7.18259 65.1791 8.21975 65.7261 9.23146C65.8083 9.38316 65.8926 9.53415 65.9904 9.70823L66.0104 9.7438C66.091 9.8856 66.1734 10.0272 66.2563 10.1676L66.3046 10.2507C66.3849 10.3862 66.4667 10.5209 66.5491 10.6547L66.6097 10.7529C66.69 10.8829 66.772 11.0123 66.8544 11.1407L66.9239 11.2495C67.0056 11.3755 67.0883 11.5013 67.1719 11.6259L67.1967 11.6629C64.7912 12.3083 62.4038 13.129 60.0979 14.1042C53.5867 16.8581 47.7389 20.8004 42.7171 25.8222C40.5825 27.9573 38.6194 30.2697 36.8805 32.6985C35.6497 30.4483 34.6585 28.0708 33.9247 25.613V24.5106C36.3823 23.9879 38.8033 23.2325 41.1257 22.2497C45.8762 20.2404 50.1423 17.3643 53.805 13.7019C57.1961 10.3108 59.9182 6.39112 61.8981 2.05217C62.2752 2.13603 62.6504 2.22436 63.0243 2.3167ZM66.5694 3.33336C71.2565 4.86825 75.6412 7.07565 79.6091 9.84226C78.2066 9.88654 76.8027 9.977 75.4313 10.1252C73.7708 10.304 72.1017 10.5621 70.4686 10.8928L70.2968 10.6578C70.2196 10.5506 70.1442 10.4429 70.0686 10.3343L69.9774 10.2036C69.9037 10.0969 69.8314 9.98925 69.7598 9.88207L69.6679 9.74451C69.5975 9.63733 69.5282 9.52968 69.4592 9.42156L69.3685 9.27928C69.3009 9.1721 69.2347 9.06492 69.1688 8.95633L69.0788 8.80841C69.0145 8.7017 68.9509 8.59404 68.8882 8.48592L68.7989 8.33235C68.7374 8.22517 68.6769 8.11751 68.6169 8.00986L68.2687 7.36374C68.2131 7.2575 68.1587 7.15103 68.105 7.04385L68.019 6.87142C67.9665 6.76589 67.9146 6.65965 67.8633 6.55271L67.779 6.37486C67.729 6.26886 67.68 6.16357 67.632 6.0571L67.5493 5.87314C67.5027 5.76808 67.456 5.66255 67.4106 5.55702L67.3302 5.36716C67.2859 5.2621 67.2424 5.15704 67.1997 5.05245L67.1213 4.85647C67.0798 4.75188 67.0389 4.64729 66.9986 4.54223L66.9227 4.34154C66.8839 4.23743 66.8455 4.13355 66.8078 4.02896L66.7345 3.82191C66.6985 3.7185 66.6627 3.61509 66.6278 3.51191L66.5694 3.33336ZM58.7319 1.45221C57.2324 4.56438 55.3058 7.445 53.0001 10.0163C51.3748 7.69469 45.7647 1.44349 35.9953 7.91611L35.885 7.9889L35.9576 8.09962C36.016 8.18842 41.6503 16.6025 48.9184 13.928C46.1944 16.1681 43.1677 17.9996 39.9107 19.3774C37.6693 20.325 35.33 21.05 32.9563 21.5322C32.6986 20.0781 32.5344 18.6017 32.4525 17.1224V12.9877C32.5512 11.2269 32.7695 9.47715 33.1137 7.76984C33.373 6.87873 33.6451 5.9723 33.9106 5.09014C34.0484 4.63246 34.1862 4.17195 34.3237 3.71049C39.5434 1.86443 45.1556 0.856013 50.9998 0.856013C53.6291 0.855778 56.211 1.06024 58.7319 1.45221ZM30.4945 5.24325C30.3393 5.85429 30.1984 6.45637 30.0828 7.02336L29.9963 7.32015C29.952 7.47421 29.9318 7.63368 29.9381 7.76606C29.4946 10.1614 29.2696 12.6207 29.2696 15.0752C29.2696 17.4006 29.4734 19.7368 29.875 22.0215C26.9706 22.356 23.9778 22.3465 21.089 21.9939C20.4824 21.9202 19.8709 21.8302 19.2709 21.7259C16.7703 21.2927 14.2962 20.5862 11.9119 19.6289C16.8562 13.4809 23.216 8.51796 30.4945 5.24325ZM2.46723 63.6274C5.74006 60.9755 9.40909 58.9179 13.3848 57.5191C16.2626 59.2922 18.9447 61.4145 21.3584 63.8283C25.361 67.8309 28.5029 72.4911 30.6971 77.6793C30.9595 78.2992 31.2144 78.9442 31.4544 79.5953C32.1239 81.4126 32.6751 83.2907 33.0929 85.1766C33.7749 88.2567 34.1207 91.4402 34.1207 94.6386C34.1207 94.8346 34.1193 95.0292 34.1167 95.2249L34.1148 95.3304C34.1122 95.4965 34.1089 95.6619 34.1044 95.8284L34.1025 95.889C34.0825 96.5954 34.0258 97.3428 33.9339 98.1524C18.5407 92.5631 6.63635 79.64 2.46723 63.6274ZM39.6575 99.8498C40.179 99.15 40.7184 98.4697 41.2677 97.8309C42.0465 96.9256 42.8888 96.0392 43.7717 95.1971C48.8027 90.3962 55.0393 87.1338 61.8142 85.7577C62.1828 87.8819 62.3696 90.0526 62.3696 92.2129C62.3696 94.8433 62.0853 97.4693 61.5313 100.027C58.1341 100.756 54.6113 101.144 50.9995 101.144C47.1003 101.144 43.3034 100.696 39.6575 99.8498ZM65.3183 99.0577C65.8785 92.6946 68.659 86.7199 73.2017 82.1772C78.3597 77.0195 85.2173 74.1791 92.5113 74.1791C93.4533 74.1791 94.4137 74.2331 95.3731 74.3332C89.1384 86.1416 78.3291 95.1743 65.3183 99.0577Z" fill="url(#paint0_linear_167_245)"/>
<defs>
<linearGradient id="paint0_linear_167_245" x1="-68.143" y1="194.944" x2="119.684" y2="-31.9826" gradientUnits="userSpaceOnUse">
<stop stop-color="#856C34"/>
<stop offset="0.1507" stop-color="#856C34"/>
<stop offset="0.4467" stop-color="#B8A974"/>
<stop offset="0.6129" stop-color="#D1C693"/>
<stop offset="0.7204" stop-color="#DBD7B8"/>
<stop offset="0.8387" stop-color="#D1C693"/>
<stop offset="1" stop-color="#856C34"/>
</linearGradient>
</defs>
</svg>
